<svg width="13" height="12" viewBox="0 0 13 12" fill="none" xmlns="http://www.w3.org/2000/svg">
<path d="M8.9375 1.71429H10.5625C11.0119 1.71429 11.375 2.09732 11.375 2.57143V9.42857C11.375 9.90268 11.0119 10.2857 10.5625 10.2857H8.9375C8.48809 10.2857 8.125 10.6687 8.125 11.1429C8.125 11.617 8.48809 12 8.9375 12H10.5625C11.9082 12 13 10.8482 13 9.42857V2.57143C13 1.15179 11.9082 0 10.5625 0H8.9375C8.48809 0 8.125 0.383036 8.125 0.857143C8.125 1.33125 8.48809 1.71429 8.9375 1.71429ZM8.69883 6.60536C9.01621 6.27054 9.01621 5.72679 8.69883 5.39196L5.44883 1.96339C5.13145 1.62857 4.61602 1.62857 4.29863 1.96339C3.98125 2.29821 3.98125 2.84196 4.29863 3.17679L6.1623 5.14286H0.8125C0.363086 5.14286 0 5.52589 0 6C0 6.47411 0.363086 6.85714 0.8125 6.85714H6.1623L4.29863 8.82321C3.98125 9.15804 3.98125 9.70179 4.29863 10.0366C4.61602 10.3714 5.13145 10.3714 5.44883 10.0366L8.69883 6.60804V6.60536Z" fill="#D7DADC"/>
</svg>
