<svg width="56" height="56" viewBox="0 0 56 56" fill="none" xmlns="http://www.w3.org/2000/svg">
<path d="M28 0C33.7969 0 38.5 4.70313 38.5 10.5V10.8938C38.5 12.6109 37.1109 14 35.3937 14H20.6172C18.9 14 17.5109 12.6109 17.5109 10.8938V10.5C17.5109 4.70313 22.2141 0 28.0109 0H28ZM4.52813 11.5281C5.89531 10.1609 8.11562 10.1609 9.48281 11.5281L16.4828 18.5281C16.5594 18.6047 16.625 18.6813 16.6906 18.7578C18.2438 17.9594 20.0156 17.5109 21.8859 17.5109H34.1359C36.0063 17.5109 37.7672 17.9594 39.3312 18.7578C39.3969 18.6813 39.4625 18.6047 39.5391 18.5281L46.5391 11.5281C47.9062 10.1609 50.1266 10.1609 51.4937 11.5281C52.8609 12.8953 52.8609 15.1156 51.4937 16.4828L44.4937 23.4828C44.4172 23.5594 44.3406 23.625 44.2641 23.6906C44.9422 25.0031 45.3687 26.4578 45.4781 28.0109H52.5109C54.4469 28.0109 56.0109 29.575 56.0109 31.5109C56.0109 33.4469 54.4469 35.0109 52.5109 35.0109H45.5109C45.5109 37.7016 44.9094 40.2391 43.8266 42.5141C44.0672 42.6563 44.2859 42.8313 44.4828 43.0391L51.4828 50.0391C52.85 51.4063 52.85 53.6266 51.4828 54.9938C50.1156 56.3609 47.8953 56.3609 46.5281 54.9938L39.6266 48.0922C36.9469 50.4766 33.5234 52.0516 29.75 52.4234V26.25C29.75 25.2875 28.9625 24.5 28 24.5C27.0375 24.5 26.25 25.2875 26.25 26.25V52.4125C22.4766 52.0406 19.0531 50.4656 16.3734 48.0813L9.47188 54.9719C8.10469 56.3391 5.88438 56.3391 4.51719 54.9719C3.15 53.6047 3.15 51.3844 4.51719 50.0172L11.5172 43.0172C11.725 42.8094 11.9438 42.6453 12.1734 42.4922C11.1016 40.2281 10.5 37.6906 10.5 35H3.5C1.56406 35 0 33.4359 0 31.5C0 29.5641 1.56406 28 3.5 28H10.5328C10.6531 26.4578 11.0797 24.9922 11.7469 23.6797C11.6703 23.6141 11.5938 23.5484 11.5172 23.4719L4.51719 16.4719C3.15 15.1047 3.15 12.8844 4.51719 11.5172L4.52813 11.5281Z" fill="url(#paint0_linear_29_138)"/>
<defs>
<linearGradient id="paint0_linear_29_138" x1="28.0055" y1="0" x2="28.0055" y2="56.0191" gradientUnits="userSpaceOnUse">
<stop stop-color="#2765BD"/>
<stop offset="1" stop-color="#122E57"/>
</linearGradient>
</defs>
</svg>
