<svg width="33" height="32" viewBox="0 0 33 32" fill="none" xmlns="http://www.w3.org/2000/svg">
<path d="M2.0625 0C3.20332 0 4.125 1.02143 4.125 2.28571V26.2857C4.125 26.9143 4.58906 27.4286 5.15625 27.4286H30.9375C32.0783 27.4286 33 28.45 33 29.7143C33 30.9786 32.0783 32 30.9375 32H5.15625C2.30742 32 0 29.4429 0 26.2857V2.28571C0 1.02143 0.92168 0 2.0625 0ZM10.3125 13.7143C11.4533 13.7143 12.375 14.7357 12.375 16V20.5714C12.375 21.8357 11.4533 22.8571 10.3125 22.8571C9.17168 22.8571 8.25 21.8357 8.25 20.5714V16C8.25 14.7357 9.17168 13.7143 10.3125 13.7143ZM18.5625 9.14286V20.5714C18.5625 21.8357 17.6408 22.8571 16.5 22.8571C15.3592 22.8571 14.4375 21.8357 14.4375 20.5714V9.14286C14.4375 7.87857 15.3592 6.85714 16.5 6.85714C17.6408 6.85714 18.5625 7.87857 18.5625 9.14286ZM22.6875 11.4286C23.8283 11.4286 24.75 12.45 24.75 13.7143V20.5714C24.75 21.8357 23.8283 22.8571 22.6875 22.8571C21.5467 22.8571 20.625 21.8357 20.625 20.5714V13.7143C20.625 12.45 21.5467 11.4286 22.6875 11.4286ZM30.9375 4.57143V20.5714C30.9375 21.8357 30.0158 22.8571 28.875 22.8571C27.7342 22.8571 26.8125 21.8357 26.8125 20.5714V4.57143C26.8125 3.30714 27.7342 2.28571 28.875 2.28571C30.0158 2.28571 30.9375 3.30714 30.9375 4.57143Z" fill="url(#paint0_linear_29_345)"/>
<defs>
<linearGradient id="paint0_linear_29_345" x1="16.5" y1="0" x2="16.5" y2="32" gradientUnits="userSpaceOnUse">
<stop stop-color="#145CA6"/>
<stop offset="1" stop-color="#082340"/>
</linearGradient>
</defs>
</svg>
