<svg width="25" height="29" viewBox="0 0 25 29" fill="none" xmlns="http://www.w3.org/2000/svg">
<path d="M0 5.4375C0 4.43496 0.797991 3.625 1.78571 3.625H23.2143C24.202 3.625 25 4.43496 25 5.4375C25 6.44004 24.202 7.25 23.2143 7.25H1.78571C0.797991 7.25 0 6.44004 0 5.4375ZM0 14.5C0 13.4975 0.797991 12.6875 1.78571 12.6875H23.2143C24.202 12.6875 25 13.4975 25 14.5C25 15.5025 24.202 16.3125 23.2143 16.3125H1.78571C0.797991 16.3125 0 15.5025 0 14.5ZM25 23.5625C25 24.565 24.202 25.375 23.2143 25.375H1.78571C0.797991 25.375 0 24.565 0 23.5625C0 22.56 0.797991 21.75 1.78571 21.75H23.2143C24.202 21.75 25 22.56 25 23.5625Z" fill="#D9D9D9"/>
</svg>
