<svg width="26" height="25" viewBox="0 0 26 25" fill="none" xmlns="http://www.w3.org/2000/svg">
<path d="M19.1902 4.12388L25.4262 10.9766C25.7918 11.3783 26 11.9308 26 12.5C26 13.0692 25.7918 13.6217 25.4262 14.0234L19.1902 20.8761C18.8652 21.2333 18.4285 21.4286 17.9715 21.4286C17.0219 21.4286 16.25 20.5804 16.25 19.5368V16.0714H9.75C8.85117 16.0714 8.125 15.2734 8.125 14.2857V10.7143C8.125 9.72656 8.85117 8.92857 9.75 8.92857H16.25V5.46317C16.25 4.41964 17.0219 3.57143 17.9715 3.57143C18.4285 3.57143 18.8652 3.77232 19.1902 4.12388ZM8.125 3.57143H4.875C3.97617 3.57143 3.25 4.36942 3.25 5.35714V19.6429C3.25 20.6306 3.97617 21.4286 4.875 21.4286H8.125C9.02383 21.4286 9.75 22.2266 9.75 23.2143C9.75 24.202 9.02383 25 8.125 25H4.875C2.18359 25 0 22.6004 0 19.6429V5.35714C0 2.39955 2.18359 0 4.875 0H8.125C9.02383 0 9.75 0.797991 9.75 1.78571C9.75 2.77344 9.02383 3.57143 8.125 3.57143Z" fill="url(#paint0_linear_29_341)"/>
<defs>
<linearGradient id="paint0_linear_29_341" x1="13" y1="0" x2="13" y2="25" gradientUnits="userSpaceOnUse">
<stop stop-color="#145CA6"/>
<stop offset="1" stop-color="#082340"/>
</linearGradient>
</defs>
</svg>
