<svg width="56" height="52" viewBox="0 0 56 52" fill="none" xmlns="http://www.w3.org/2000/svg">
<path d="M2.25477 20.2947C0.104186 21.5363 -0.633258 24.2885 0.608381 26.4391C1.31588 27.6645 2.5574 28.4842 3.96574 28.6558L29.2715 31.7046C30.5949 31.8603 31.8609 31.1294 32.3878 29.9054L42.4003 6.46562C42.9559 5.16018 42.8667 3.67513 42.1592 2.4497C40.9176 0.299119 38.1654 -0.438326 36.0148 0.803314L2.25477 20.2947ZM3.60705 31.6329L13.3527 48.513C15.0067 51.3777 18.6805 52.3621 21.5453 50.7082L52.7084 32.7161C55.5731 31.0622 56.5575 27.3883 54.9036 24.5236L45.1579 7.64356L35.1454 31.0834C34.0963 33.5394 31.5643 35.0012 28.9128 34.6818L3.60705 31.6329Z" fill="url(#paint0_linear_29_146)"/>
<defs>
<linearGradient id="paint0_linear_29_146" x1="19.1348" y1="10.549" x2="37.1268" y2="41.7121" gradientUnits="userSpaceOnUse">
<stop stop-color="#145CA6"/>
<stop offset="1" stop-color="#082340"/>
</linearGradient>
</defs>
</svg>
