<svg width="41" height="47" viewBox="0 0 41 47" fill="none" xmlns="http://www.w3.org/2000/svg">
<path d="M23.4291 7.34375C23.4291 5.71895 22.1204 4.40625 20.5006 4.40625C18.8807 4.40625 17.572 5.71895 17.572 7.34375V20.5625H4.39342C2.77355 20.5625 1.46484 21.8752 1.46484 23.5C1.46484 25.1248 2.77355 26.4375 4.39342 26.4375H17.572V39.6562C17.572 41.2811 18.8807 42.5938 20.5006 42.5938C22.1204 42.5938 23.4291 41.2811 23.4291 39.6562V26.4375H36.6077C38.2276 26.4375 39.5363 25.1248 39.5363 23.5C39.5363 21.8752 38.2276 20.5625 36.6077 20.5625H23.4291V7.34375Z" fill="url(#paint0_linear_53_52)"/>
<defs>
<linearGradient id="paint0_linear_53_52" x1="20.5006" y1="4.40625" x2="20.5006" y2="42.5938" gradientUnits="userSpaceOnUse">
<stop stop-color="#145CA6"/>
<stop offset="1" stop-color="#082340"/>
</linearGradient>
</defs>
</svg>
