<svg width="40" height="40" viewBox="0 0 40 40" fill="none" xmlns="http://www.w3.org/2000/svg">
<g clip-path="url(#clip0_53_292)">
<path d="M13.8432 11.2086C13.1122 10.4776 11.933 10.4759 11.2042 11.2046C10.4755 11.9333 10.4773 13.1126 11.2082 13.8436L17.155 19.7903L11.2263 25.7189C10.4976 26.4477 10.4994 27.6269 11.2303 28.3579C11.9613 29.0889 13.1406 29.0906 13.8693 28.3619L19.798 22.4333L25.7447 28.38C26.4756 29.1109 27.6549 29.1127 28.3837 28.384C29.1124 27.6553 29.1106 26.476 28.3796 25.745L22.4329 19.7983L28.3616 13.8697C29.0903 13.1409 29.0885 11.9616 28.3575 11.2307C27.6266 10.4997 26.4473 10.4979 25.7186 11.2267L19.7899 17.1553L13.8432 11.2086Z" fill="#810000"/>
</g>
<defs>
<clipPath id="clip0_53_292">
<rect width="26.0847" height="29.902" fill="white" transform="translate(0 18.4447) rotate(-45)"/>
</clipPath>
</defs>
</svg>
