<svg width="31" height="27" viewBox="0 0 31 27" fill="none" xmlns="http://www.w3.org/2000/svg">
<path d="M15.0395 6.86961C15.3898 6.52963 15.528 5.99539 15.3454 5.52051C15.232 5.2345 15.1086 4.95389 14.9705 4.68407L14.8175 4.39266C14.6695 4.12284 14.5067 3.85842 14.334 3.60479C14.0528 3.19466 13.5594 3.05975 13.1154 3.22165L11.7241 3.72351C11.1962 3.24863 10.5894 2.86009 9.93813 2.59566L9.63717 1.03071C9.54343 0.528846 9.18821 0.129513 8.72444 0.0701531C8.39882 0.0215856 8.06826 0 7.73277 0H7.69824C7.36274 0 7.03219 0.0215856 6.70657 0.0647567C6.2428 0.124117 5.88758 0.528846 5.79384 1.02531L5.49288 2.59566C4.8367 2.86548 4.23479 3.24863 3.70689 3.72351L2.31066 3.22704C1.86663 3.06515 1.37326 3.20006 1.09204 3.61019C0.919361 3.86382 0.75655 4.12824 0.603606 4.39806L0.455596 4.68407C0.317453 4.95389 0.194111 5.2345 0.0806361 5.5259C-0.10191 5.99539 0.0362329 6.52963 0.386524 6.875L1.4818 7.94349C1.42753 8.30505 1.39793 8.68279 1.39793 9.06594C1.39793 9.44908 1.42753 9.82683 1.4818 10.1938L0.386524 11.2623C0.0362329 11.6022 -0.10191 12.1365 0.0806361 12.6114C0.194111 12.8974 0.317453 13.178 0.455596 13.4532L0.603606 13.7338C0.751616 14.009 0.914428 14.2681 1.09204 14.5217C1.37326 14.9318 1.86663 15.0667 2.31066 14.9048L3.70196 14.403C4.22986 14.8778 4.8367 15.2664 5.48795 15.5308L5.7889 17.1012C5.88264 17.603 6.23787 18.0024 6.70163 18.0617C7.03219 18.1049 7.36768 18.1265 7.7081 18.1265C8.04853 18.1265 8.38402 18.1049 8.71457 18.0617C9.17834 18.0024 9.53356 17.5976 9.6273 17.1012L9.92826 15.5308C10.5844 15.261 11.1863 14.8778 11.7142 14.403L13.1055 14.9048C13.5496 15.0667 14.0429 14.9318 14.3242 14.5217C14.4968 14.2681 14.6597 14.009 14.8077 13.7338L14.9606 13.4424C15.0988 13.1726 15.2221 12.892 15.3356 12.606C15.5181 12.1365 15.38 11.6022 15.0297 11.2569L13.9344 10.1884C13.9887 9.82143 14.0183 9.44368 14.0183 9.06054C14.0183 8.6774 13.9887 8.29965 13.9344 7.93269L15.0297 6.86421L15.0395 6.86961ZM5.34487 9.06594C5.34487 8.37895 5.59437 7.72011 6.03849 7.23434C6.48261 6.74857 7.08496 6.47567 7.71304 6.47567C8.34111 6.47567 8.94347 6.74857 9.38758 7.23434C9.8317 7.72011 10.0812 8.37895 10.0812 9.06594C10.0812 9.75292 9.8317 10.4118 9.38758 10.8975C8.94347 11.3833 8.34111 11.6562 7.71304 11.6562C7.08496 11.6562 6.48261 11.3833 6.03849 10.8975C5.59437 10.4118 5.34487 9.75292 5.34487 9.06594ZM24.7194 26.5772C25.0302 26.9604 25.5187 27.1115 25.9528 26.9118C26.2143 26.7877 26.4709 26.6528 26.7176 26.5017L26.984 26.3344C27.2307 26.1725 27.4724 25.9944 27.7043 25.8055C28.0793 25.4979 28.2026 24.9583 28.0546 24.4726L27.5958 22.9508C28.0299 22.3734 28.3852 21.7097 28.6269 20.9974L30.0626 20.6682C30.5214 20.5656 30.8865 20.1771 30.9408 19.6698C30.9803 19.3083 31 18.9413 31 18.569C31 18.1966 30.9803 17.8297 30.9408 17.4681C30.8865 16.9609 30.5165 16.5723 30.0626 16.4698L28.6269 16.1352C28.3802 15.4175 28.0299 14.7591 27.5958 14.1817L28.0546 12.6599C28.2026 12.1743 28.0793 11.6346 27.7043 11.327C27.4724 11.1382 27.2307 10.9601 26.984 10.7928L26.7225 10.6309C26.4758 10.4798 26.2193 10.3449 25.9528 10.2208C25.5236 10.0211 25.0352 10.1722 24.7194 10.5553L23.7426 11.7533C23.4071 11.694 23.0617 11.6616 22.7114 11.6616C22.3611 11.6616 22.0158 11.694 21.6803 11.7533L20.7034 10.5553C20.3926 10.1722 19.9042 10.0211 19.47 10.2208C19.2085 10.3449 18.952 10.4798 18.7003 10.6309L18.4438 10.7928C18.1922 10.9547 17.9554 11.1328 17.7235 11.327C17.3485 11.6346 17.2252 12.1743 17.3732 12.6599L17.832 14.1817C17.3978 14.7591 17.0426 15.4229 16.8009 16.1352L15.3652 16.459C14.9063 16.5615 14.5412 16.9501 14.487 17.4573C14.4475 17.8189 14.4278 18.1858 14.4278 18.5582C14.4278 18.9305 14.4475 19.2975 14.487 19.659C14.5412 20.1663 14.9113 20.5549 15.3652 20.6574L16.8009 20.9866C17.0476 21.7043 17.3978 22.3626 17.832 22.9401L17.3732 24.4618C17.2252 24.9475 17.3485 25.4872 17.7235 25.7947C17.9554 25.9836 18.1922 26.1617 18.4438 26.3236L18.7102 26.4909C18.9569 26.642 19.2134 26.7769 19.4749 26.901C19.9042 27.1007 20.3926 26.9496 20.7083 26.5664L21.6852 25.3684C22.0207 25.4278 22.3661 25.4602 22.7164 25.4602C23.0666 25.4602 23.412 25.4278 23.7475 25.3684L24.7244 26.5664L24.7194 26.5772ZM22.7114 15.9733C23.0224 15.9733 23.3304 16.0403 23.6177 16.1705C23.905 16.3007 24.1661 16.4915 24.386 16.732C24.6059 16.9725 24.7803 17.2581 24.8993 17.5723C25.0183 17.8866 25.0796 18.2234 25.0796 18.5636C25.0796 18.9037 25.0183 19.2406 24.8993 19.5548C24.7803 19.8691 24.6059 20.1547 24.386 20.3952C24.1661 20.6357 23.905 20.8265 23.6177 20.9567C23.3304 21.0869 23.0224 21.1539 22.7114 21.1539C22.4004 21.1539 22.0925 21.0869 21.8052 20.9567C21.5178 20.8265 21.2568 20.6357 21.0369 20.3952C20.817 20.1547 20.6425 19.8691 20.5235 19.5548C20.4045 19.2406 20.3433 18.9037 20.3433 18.5636C20.3433 18.2234 20.4045 17.8866 20.5235 17.5723C20.6425 17.2581 20.817 16.9725 21.0369 16.732C21.2568 16.4915 21.5178 16.3007 21.8052 16.1705C22.0925 16.0403 22.4004 15.9733 22.7114 15.9733Z" fill="url(#paint0_linear_29_339)"/>
<defs>
<linearGradient id="paint0_linear_29_339" x1="15.5" y1="0" x2="15.5" y2="27" gradientUnits="userSpaceOnUse">
<stop stop-color="#145CA6"/>
<stop offset="1" stop-color="#082340"/>
</linearGradient>
</defs>
</svg>
