<svg width="18" height="19" viewBox="0 0 18 19" fill="none" xmlns="http://www.w3.org/2000/svg">
<path d="M0 3.5625C0 2.25254 1.00898 1.1875 2.25 1.1875H15.75C16.991 1.1875 18 2.25254 18 3.5625V15.4375C18 16.7475 16.991 17.8125 15.75 17.8125H2.25C1.00898 17.8125 0 16.7475 0 15.4375V3.5625ZM11.3836 7.51465C11.2254 7.26973 10.9652 7.125 10.6875 7.125C10.4098 7.125 10.1461 7.26973 9.99141 7.51465L6.93281 12.2498L6.00117 11.0215C5.83945 10.81 5.59688 10.6875 5.34375 10.6875C5.09062 10.6875 4.84453 10.81 4.68633 11.0215L2.43633 13.9902C2.23242 14.2574 2.19375 14.6248 2.33438 14.9328C2.475 15.2408 2.77031 15.4375 3.09375 15.4375H6.46875H7.59375H14.9062C15.2191 15.4375 15.5074 15.2557 15.6516 14.9625C15.7957 14.6693 15.7781 14.3168 15.6023 14.0459L11.3836 7.51465ZM3.9375 7.125C4.38505 7.125 4.81428 6.93733 5.13074 6.60328C5.44721 6.26924 5.625 5.81617 5.625 5.34375C5.625 4.87133 5.44721 4.41827 5.13074 4.08422C4.81428 3.75017 4.38505 3.5625 3.9375 3.5625C3.48995 3.5625 3.06072 3.75017 2.74426 4.08422C2.42779 4.41827 2.25 4.87133 2.25 5.34375C2.25 5.81617 2.42779 6.26924 2.74426 6.60328C3.06072 6.93733 3.48995 7.125 3.9375 7.125Z" fill="#D7DADC"/>
</svg>
