<svg width="28" height="28" viewBox="0 0 28 28" fill="none" xmlns="http://www.w3.org/2000/svg">
<path d="M10.0522 0C11.5756 0 13.0366 0.737498 14.1139 2.05025C15.1911 3.36301 15.7963 5.14348 15.7963 7C15.7963 8.85652 15.1911 10.637 14.1139 11.9497C13.0366 13.2625 11.5756 14 10.0522 14C8.52875 14 7.06772 13.2625 5.99049 11.9497C4.91326 10.637 4.30808 8.85652 4.30808 7C4.30808 5.14348 4.91326 3.36301 5.99049 2.05025C7.06772 0.737498 8.52875 0 10.0522 0ZM8.00136 16.625H12.103C12.6325 16.625 13.1531 16.6906 13.6512 16.8055C13.557 17.8172 13.9833 18.7523 14.6295 19.2555C13.8846 19.8352 13.4313 20.9836 13.732 22.1703C13.9115 22.8758 14.1538 23.5648 14.468 24.2266C14.7821 24.8883 15.1501 25.4898 15.5629 26.0312C16.2675 26.9555 17.34 27.0375 18.1298 26.507V26.5562C18.1298 27.0594 18.251 27.568 18.4843 27.9945L1.33281 28C0.596848 28 0 27.2727 0 26.3758C0 20.9891 3.58109 16.625 8.00136 16.625ZM19.5659 11.9328C19.5659 11.55 19.7678 11.2055 20.073 11.1234C20.5441 10.9922 21.0378 10.9211 21.5404 10.9211C22.043 10.9211 22.5366 10.9922 23.0078 11.1234C23.313 11.2055 23.5149 11.55 23.5149 11.9328V13.6062C23.8694 13.7922 24.206 14.0273 24.5157 14.3063L25.6331 13.5242C25.9068 13.3328 26.2479 13.3766 26.4633 13.6555C26.8043 14.0984 27.105 14.5961 27.3653 15.143C27.6256 15.6898 27.8275 16.2586 27.9711 16.8383C28.0653 17.2047 27.9217 17.5875 27.648 17.7789L26.5261 18.5664C26.544 18.7852 26.5575 19.0094 26.5575 19.2391C26.5575 19.4688 26.5485 19.6875 26.5261 19.9117L27.648 20.6992C27.9217 20.8906 28.0608 21.2734 27.9711 21.6398C27.823 22.2195 27.6211 22.7883 27.3653 23.3352C27.1095 23.882 26.8043 24.3797 26.4633 24.8227C26.2479 25.1016 25.9023 25.1453 25.6331 24.9539L24.5157 24.1719C24.206 24.4508 23.8739 24.6859 23.5149 24.8719V26.5453C23.5149 26.9281 23.313 27.2727 23.0078 27.3547C22.5366 27.4859 22.043 27.557 21.5404 27.557C21.0378 27.557 20.5441 27.4859 20.073 27.3547C19.7678 27.2727 19.5659 26.9281 19.5659 26.5453V24.8773C19.2068 24.6914 18.8658 24.4562 18.5562 24.1719L17.4477 24.9539C17.174 25.1453 16.8329 25.1016 16.6175 24.8227C16.2765 24.3797 15.9758 23.882 15.7155 23.3352C15.4552 22.7883 15.2533 22.2195 15.1097 21.6398C15.0154 21.2734 15.159 20.8906 15.4328 20.6992L16.5457 19.9172C16.5278 19.693 16.5143 19.4688 16.5143 19.2391C16.5143 19.0094 16.5233 18.7852 16.5457 18.5609L15.4283 17.7734C15.1546 17.582 15.0154 17.1992 15.1052 16.8328C15.2533 16.2531 15.4507 15.6844 15.711 15.1375C15.9713 14.5906 16.272 14.093 16.613 13.65C16.8284 13.3711 17.1695 13.3273 17.4432 13.5188L18.5562 14.3008C18.8658 14.0219 19.2068 13.7867 19.5659 13.5953V11.9273V11.9328ZM23.6989 19.2336C23.7122 18.8784 23.6663 18.5237 23.5639 18.1907C23.4616 17.8578 23.3049 17.5536 23.1033 17.2966C22.9018 17.0395 22.6596 16.8349 22.3913 16.6951C22.1231 16.5553 21.8344 16.4832 21.5426 16.4832C21.2509 16.4832 20.9622 16.5553 20.6939 16.6951C20.4257 16.8349 20.1835 17.0395 19.9819 17.2966C19.7804 17.5536 19.6237 17.8578 19.5213 18.1907C19.419 18.5237 19.3731 18.8784 19.3864 19.2336C19.3731 19.5888 19.419 19.9435 19.5213 20.2765C19.6237 20.6094 19.7804 20.9136 19.9819 21.1706C20.1835 21.4277 20.4257 21.6323 20.6939 21.7721C20.9622 21.9119 21.2509 21.984 21.5426 21.984C21.8344 21.984 22.1231 21.9119 22.3913 21.7721C22.6596 21.6323 22.9018 21.4277 23.1033 21.1706C23.3049 20.9136 23.4616 20.6094 23.5639 20.2765C23.6663 19.9435 23.7122 19.5888 23.6989 19.2336Z" fill="url(#paint0_linear_29_337)"/>
<defs>
<linearGradient id="paint0_linear_29_337" x1="14" y1="0" x2="14" y2="28" gradientUnits="userSpaceOnUse">
<stop stop-color="#145CA6"/>
<stop offset="1" stop-color="#082340"/>
</linearGradient>
</defs>
</svg>
