<svg width="379" height="83" viewBox="0 0 379 83" fill="none" xmlns="http://www.w3.org/2000/svg">
<path d="M207.774 46.1915H214.962L218.575 50.8399L222.13 54.9806L228.829 63.379H220.938L216.329 57.7149L213.966 54.3556L207.774 46.1915ZM229.435 40.0977C229.435 44.4597 228.608 48.1707 226.954 51.2306C225.313 54.2904 223.074 56.6277 220.235 58.2423C217.41 59.8438 214.233 60.6446 210.704 60.6446C207.149 60.6446 203.959 59.8373 201.134 58.2227C198.308 56.6082 196.075 54.2709 194.435 51.211C192.794 48.1511 191.974 44.4467 191.974 40.0977C191.974 35.7358 192.794 32.0248 194.435 28.9649C196.075 25.905 198.308 23.5743 201.134 21.9727C203.959 20.3582 207.149 19.5509 210.704 19.5509C214.233 19.5509 217.41 20.3582 220.235 21.9727C223.074 23.5743 225.313 25.905 226.954 28.9649C228.608 32.0248 229.435 35.7358 229.435 40.0977ZM220.86 40.0977C220.86 37.2722 220.437 34.8894 219.591 32.9493C218.757 31.0092 217.579 29.5378 216.056 28.5352C214.532 27.5326 212.748 27.0313 210.704 27.0313C208.66 27.0313 206.876 27.5326 205.353 28.5352C203.829 29.5378 202.644 31.0092 201.798 32.9493C200.965 34.8894 200.548 37.2722 200.548 40.0977C200.548 42.9233 200.965 45.3061 201.798 47.2462C202.644 49.1863 203.829 50.6576 205.353 51.6602C206.876 52.6628 208.66 53.1641 210.704 53.1641C212.748 53.1641 214.532 52.6628 216.056 51.6602C217.579 50.6576 218.757 49.1863 219.591 47.2462C220.437 45.3061 220.86 42.9233 220.86 40.0977ZM260.406 20.0977H268.863V46.0743C268.863 48.991 268.167 51.5431 266.773 53.7306C265.393 55.9181 263.46 57.6238 260.973 58.8477C258.486 60.0587 255.589 60.6641 252.281 60.6641C248.961 60.6641 246.057 60.0587 243.57 58.8477C241.083 57.6238 239.15 55.9181 237.77 53.7306C236.389 51.5431 235.699 48.991 235.699 46.0743V20.0977H244.156V45.3516C244.156 46.8751 244.488 48.2293 245.152 49.4141C245.829 50.599 246.78 51.53 248.004 52.2071C249.228 52.8842 250.654 53.2227 252.281 53.2227C253.922 53.2227 255.348 52.8842 256.559 52.2071C257.783 51.53 258.727 50.599 259.391 49.4141C260.068 48.2293 260.406 46.8751 260.406 45.3516V20.0977ZM275.821 60.0977V20.0977H302.774V27.0704H284.278V36.6016H301.388V43.5743H284.278V53.1251H302.853V60.0977H275.821ZM331.197 31.6016C331.041 30.0261 330.37 28.8022 329.186 27.9298C328.001 27.0574 326.393 26.6212 324.361 26.6212C322.981 26.6212 321.816 26.8165 320.865 27.2071C319.915 27.5847 319.186 28.1121 318.678 28.7891C318.183 29.4662 317.936 30.2345 317.936 31.0938C317.91 31.81 318.059 32.435 318.385 32.9688C318.723 33.5027 319.186 33.9649 319.771 34.3556C320.357 34.7332 321.035 35.0652 321.803 35.3516C322.571 35.6251 323.391 35.8595 324.264 36.0548L327.857 36.9141C329.602 37.3048 331.204 37.8256 332.662 38.4766C334.12 39.1277 335.383 39.9285 336.451 40.879C337.519 41.8295 338.346 42.9493 338.932 44.2384C339.531 45.5274 339.837 47.0053 339.85 48.672C339.837 51.1199 339.212 53.2423 337.975 55.0391C336.751 56.823 334.98 58.2097 332.662 59.1993C330.357 60.1759 327.577 60.6641 324.322 60.6641C321.093 60.6641 318.281 60.1694 315.885 59.1798C313.502 58.1902 311.64 56.7253 310.299 54.7852C308.971 52.8321 308.274 50.4168 308.209 47.5391H316.393C316.484 48.8803 316.868 50.0001 317.545 50.8985C318.235 51.7839 319.153 52.4545 320.299 52.9102C321.458 53.3529 322.766 53.5743 324.225 53.5743C325.657 53.5743 326.9 53.366 327.955 52.9493C329.023 52.5326 329.85 51.9532 330.436 51.211C331.021 50.4688 331.314 49.616 331.314 48.6524C331.314 47.754 331.048 46.9988 330.514 46.3868C329.993 45.7748 329.225 45.254 328.209 44.8243C327.206 44.3946 325.976 44.004 324.518 43.6524L320.162 42.5587C316.79 41.7384 314.127 40.4558 312.174 38.711C310.221 36.9662 309.251 34.616 309.264 31.6602C309.251 29.2384 309.895 27.1225 311.197 25.3126C312.512 23.5027 314.316 22.0899 316.607 21.0743C318.899 20.0587 321.503 19.5509 324.42 19.5509C327.389 19.5509 329.98 20.0587 332.193 21.0743C334.42 22.0899 336.152 23.5027 337.389 25.3126C338.626 27.1225 339.264 29.2188 339.303 31.6016H331.197ZM344.015 27.0704V20.0977H376.866V27.0704H364.62V60.0977H356.261V27.0704H344.015Z" fill="#D9D9D9"/>
<path d="M18.0195 60.0977H3.83984V20.0977H18.1367C22.1602 20.0977 25.6237 20.8985 28.5273 22.5001C31.431 24.0886 33.6641 26.3738 35.2266 29.3556C36.8021 32.3373 37.5898 35.905 37.5898 40.0587C37.5898 44.2253 36.8021 47.8061 35.2266 50.8009C33.6641 53.7957 31.418 56.0938 28.4883 57.6954C25.5716 59.297 22.082 60.0977 18.0195 60.0977ZM12.2969 52.8516H17.668C20.168 52.8516 22.2708 52.4089 23.9766 51.5235C25.6953 50.6251 26.9844 49.2384 27.8438 47.3634C28.7161 45.4753 29.1523 43.0404 29.1523 40.0587C29.1523 37.1029 28.7161 34.6876 27.8438 32.8126C26.9844 30.9376 25.7018 29.5574 23.9961 28.672C22.2904 27.7865 20.1875 27.3438 17.6875 27.3438H12.2969V52.8516ZM48.4932 60.0977H39.4307L53.2393 20.0977H64.1377L77.9268 60.0977H68.8643L58.8447 29.2384H58.5322L48.4932 60.0977ZM47.9268 44.3751H69.333V50.9766H47.9268V44.3751ZM91.1982 20.0977V60.0977H82.7412V20.0977H91.1982ZM98.1562 60.0977V20.0977H106.613V53.1251H123.762V60.0977H98.1562ZM121.916 20.0977H131.389L140.51 37.3243H140.9L150.021 20.0977H159.494L144.904 45.9571V60.0977H136.506V45.9571L121.916 20.0977Z" fill="#D9D9D9"/>
<path d="M183.691 0.999998L182.168 57.0156H167.871L166.309 0.999998H183.691ZM175.02 82.0156C172.441 82.0156 170.228 81.1042 168.379 79.2812C166.53 77.4323 165.618 75.2187 165.645 72.6406C165.618 70.0885 166.53 67.901 168.379 66.0781C170.228 64.2552 172.441 63.3437 175.02 63.3437C177.493 63.3437 179.668 64.2552 181.543 66.0781C183.418 67.901 184.368 70.0885 184.395 72.6406C184.368 74.3594 183.913 75.9349 183.027 77.3672C182.168 78.7734 181.035 79.9062 179.629 80.7656C178.223 81.599 176.686 82.0156 175.02 82.0156Z" fill="url(#paint0_linear_114_31)"/>
<defs>
<linearGradient id="paint0_linear_114_31" x1="173.535" y1="12.5442" x2="173.535" y2="59.1372" gradientUnits="userSpaceOnUse">
<stop stop-color="#230EDF"/>
<stop offset="1" stop-color="#211B50"/>
</linearGradient>
</defs>
</svg>
