<svg width="311" height="81" viewBox="0 0 311 81" fill="none" xmlns="http://www.w3.org/2000/svg">
<path d="M180.503 40.8864H185.73L188.358 44.267L190.943 47.2784L195.815 53.3864H190.077L186.725 49.267L185.006 46.8239L180.503 40.8864ZM196.256 36.4545C196.256 39.6269 195.654 42.3258 194.452 44.5511C193.259 46.7765 191.63 48.4763 189.565 49.6506C187.511 50.8153 185.2 51.3977 182.634 51.3977C180.048 51.3977 177.728 50.8106 175.673 49.6364C173.619 48.4621 171.994 46.7623 170.801 44.5369C169.608 42.3116 169.011 39.6174 169.011 36.4545C169.011 33.2822 169.608 30.5833 170.801 28.358C171.994 26.1326 173.619 24.4375 175.673 23.2727C177.728 22.0985 180.048 21.5114 182.634 21.5114C185.2 21.5114 187.511 22.0985 189.565 23.2727C191.63 24.4375 193.259 26.1326 194.452 28.358C195.654 30.5833 196.256 33.2822 196.256 36.4545ZM190.02 36.4545C190.02 34.3996 189.712 32.6667 189.097 31.2557C188.491 29.8447 187.634 28.7746 186.526 28.0455C185.418 27.3163 184.12 26.9517 182.634 26.9517C181.147 26.9517 179.85 27.3163 178.742 28.0455C177.634 28.7746 176.772 29.8447 176.156 31.2557C175.55 32.6667 175.247 34.3996 175.247 36.4545C175.247 38.5095 175.55 40.2424 176.156 41.6534C176.772 43.0644 177.634 44.1345 178.742 44.8636C179.85 45.5928 181.147 45.9574 182.634 45.9574C184.12 45.9574 185.418 45.5928 186.526 44.8636C187.634 44.1345 188.491 43.0644 189.097 41.6534C189.712 40.2424 190.02 38.5095 190.02 36.4545ZM218.781 21.9091H224.931V40.8011C224.931 42.9223 224.425 44.7784 223.411 46.3693C222.408 47.9602 221.001 49.2008 219.193 50.0909C217.384 50.9716 215.277 51.4119 212.872 51.4119C210.457 51.4119 208.345 50.9716 206.536 50.0909C204.728 49.2008 203.321 47.9602 202.318 46.3693C201.314 44.7784 200.812 42.9223 200.812 40.8011V21.9091H206.962V40.2756C206.962 41.3835 207.204 42.3684 207.687 43.2301C208.179 44.0919 208.871 44.7689 209.761 45.2614C210.651 45.7538 211.688 46 212.872 46C214.065 46 215.102 45.7538 215.982 45.2614C216.873 44.7689 217.559 44.0919 218.042 43.2301C218.534 42.3684 218.781 41.3835 218.781 40.2756V21.9091ZM229.992 51V21.9091H249.594V26.9801H236.142V33.9119H248.585V38.983H236.142V45.929H249.651V51H229.992ZM270.265 30.2756C270.151 29.1297 269.664 28.2396 268.802 27.6051C267.94 26.9706 266.771 26.6534 265.293 26.6534C264.29 26.6534 263.442 26.7955 262.751 27.0795C262.06 27.3542 261.529 27.7377 261.16 28.2301C260.8 28.7225 260.62 29.2812 260.62 29.9062C260.601 30.4271 260.71 30.8816 260.947 31.2699C261.193 31.6581 261.529 31.9943 261.955 32.2784C262.382 32.553 262.874 32.7945 263.433 33.0028C263.991 33.2017 264.588 33.3722 265.222 33.5142L267.836 34.1392C269.105 34.4233 270.27 34.8021 271.33 35.2756C272.391 35.7491 273.31 36.3314 274.086 37.0227C274.863 37.714 275.464 38.5284 275.89 39.4659C276.326 40.4034 276.548 41.4782 276.558 42.6903C276.548 44.4706 276.094 46.0142 275.194 47.321C274.304 48.6184 273.016 49.6269 271.33 50.3466C269.654 51.0568 267.632 51.4119 265.265 51.4119C262.917 51.4119 260.871 51.0521 259.129 50.3324C257.396 49.6127 256.042 48.5473 255.066 47.1364C254.1 45.7159 253.594 43.9593 253.546 41.8665H259.498C259.564 42.8419 259.844 43.6562 260.336 44.3097C260.838 44.9536 261.506 45.4413 262.339 45.7727C263.182 46.0947 264.133 46.2557 265.194 46.2557C266.236 46.2557 267.14 46.1042 267.907 45.8011C268.684 45.4981 269.285 45.0767 269.711 44.5369C270.137 43.9972 270.35 43.3769 270.35 42.6761C270.35 42.0227 270.156 41.4735 269.768 41.0284C269.389 40.5833 268.83 40.2045 268.092 39.892C267.363 39.5795 266.468 39.2955 265.407 39.0398L262.239 38.2443C259.787 37.6477 257.85 36.715 256.43 35.446C255.009 34.1771 254.304 32.4678 254.313 30.3182C254.304 28.5568 254.773 27.018 255.72 25.7017C256.676 24.3854 257.988 23.358 259.654 22.6193C261.321 21.8807 263.215 21.5114 265.336 21.5114C267.495 21.5114 269.38 21.8807 270.989 22.6193C272.609 23.358 273.868 24.3854 274.768 25.7017C275.668 27.018 276.132 28.5426 276.16 30.2756H270.265ZM279.587 26.9801V21.9091H303.479V26.9801H294.573V51H288.493V26.9801H279.587Z" fill="white"/>
<path d="M20.0107 51H9.69818V21.9091H20.0959C23.022 21.9091 25.541 22.4915 27.6527 23.6562C29.7645 24.8116 31.3885 26.4735 32.5249 28.642C33.6707 30.8106 34.2436 33.4053 34.2436 36.4261C34.2436 39.4564 33.6707 42.0606 32.5249 44.2386C31.3885 46.4167 29.755 48.0881 27.6243 49.2528C25.5031 50.4176 22.9652 51 20.0107 51ZM15.8487 45.7301H19.755C21.5732 45.7301 23.1025 45.4081 24.3431 44.7642C25.5931 44.1108 26.5306 43.1023 27.1556 41.7386C27.79 40.3655 28.1073 38.5947 28.1073 36.4261C28.1073 34.2765 27.79 32.5199 27.1556 31.1562C26.5306 29.7926 25.5978 28.7888 24.3573 28.1449C23.1167 27.5009 21.5874 27.179 19.7692 27.179H15.8487V45.7301ZM42.1733 51H35.5824L45.625 21.9091H53.5512L63.5796 51H56.9887L49.7017 28.5568H49.4745L42.1733 51ZM41.7614 39.5653H57.3296V44.3665H41.7614V39.5653ZM73.2316 21.9091V51H67.081V21.9091H73.2316ZM78.2919 51V21.9091H84.4425V45.929H96.9141V51H78.2919ZM95.5718 21.9091H102.461L109.094 34.4375H109.379L116.012 21.9091H122.901L112.291 40.7159V51H106.183V40.7159L95.5718 21.9091Z" fill="white"/>
<path d="M153.322 7.54545L152.075 53.3764H140.378L139.099 7.54545H153.322ZM146.226 73.831C144.117 73.831 142.306 73.0852 140.793 71.5938C139.28 70.081 138.535 68.2699 138.556 66.1605C138.535 64.0724 139.28 62.2827 140.793 60.7912C142.306 59.2997 144.117 58.554 146.226 58.554C148.251 58.554 150.03 59.2997 151.564 60.7912C153.098 62.2827 153.876 64.0724 153.897 66.1605C153.876 67.5668 153.503 68.8558 152.778 70.0277C152.075 71.1783 151.148 72.1051 149.998 72.8082C148.847 73.4901 147.59 73.831 146.226 73.831Z" fill="url(#paint0_linear_62_946)"/>
<defs>
<linearGradient id="paint0_linear_62_946" x1="144.707" y1="12.5442" x2="144.707" y2="59.1372" gradientUnits="userSpaceOnUse">
<stop stop-color="#230EDF"/>
<stop offset="1" stop-color="#211B50"/>
</linearGradient>
</defs>
</svg>
